<svg id="Layer_1" fill="#fff" enable-background="new 0 0 480.006 480.006" height="512" viewBox="0 0 480.006 480.006" width="512" xmlns="http://www.w3.org/2000/svg"><path d="m150.03 394.023-3.727 44.721c-1.928 23.138-21.626 41.263-44.844 41.263h-11.91c-23.218 0-42.916-18.125-44.844-41.263l-6.613-79.348c-21.298-3.545-37.588-22.101-37.588-44.39v-69c0-30.878 25.122-56 56-56h19c4.418 0 8 3.582 8 8s-3.582 8-8 8h-19c-22.056 0-40 17.944-40 40v69c0 15.991 13.009 29 29 29 4.161 0 7.627 3.189 7.972 7.335l7.173 86.073c1.243 14.911 13.937 26.592 28.9 26.592h11.91c14.963 0 27.657-11.681 28.9-26.592l3.727-44.721c.366-4.402 4.229-7.674 8.637-7.308 4.402.368 7.674 4.234 7.307 8.638zm-15.527-204.017c-4.418 0-8 3.582-8 8s3.582 8 8 8c22.056 0 40 17.944 40 40v69c0 15.991-13.009 29-29 29-4.418 0-8 3.582-8 8s3.582 8 8 8c24.813 0 45-20.187 45-45v-69c0-30.878-25.121-56-56-56zm-39-10c4.418 0 8-3.582 8-8s-3.582-8-8-8c-25.364 0-46-20.636-46-46s20.636-46 46-46c39.645 0 60.631 47.052 34.383 76.559-2.937 3.301-2.641 8.358.661 11.294 3.301 2.936 8.357 2.641 11.294-.661 10.1-11.354 15.662-25.983 15.662-41.193 0-34.187-27.813-62-62-62s-62 27.813-62 62 27.813 62.001 62 62.001zm294.955 284h-11.91c-14.963 0-27.657-11.681-28.9-26.592l-7.173-86.073c-.345-4.146-3.812-7.335-7.972-7.335-15.991 0-29-13.009-29-29v-69c0-22.056 17.944-40 40-40h78c22.056 0 40 17.944 40 40 0 4.418 3.582 8 8 8s8-3.582 8-8c0-30.878-25.122-56-56-56h-78c-30.878 0-56 25.122-56 56v69c0 22.289 16.29 40.845 37.588 44.39l6.613 79.348c1.928 23.138 21.626 41.263 44.844 41.263h11.91c4.418 0 8-3.582 8-8s-3.581-8.001-8-8.001zm81.045-187.5c-4.418 0-8 3.582-8 8v30.5c0 15.991-13.009 29-29 29-4.161 0-7.627 3.189-7.972 7.335l-7.173 86.073c-.388 4.649 3.275 8.665 7.981 8.665 4.118 0 7.615-3.159 7.963-7.336l6.613-79.348c21.298-3.545 37.588-22.101 37.588-44.39v-30.5c0-4.417-3.581-7.999-8-7.999zm-87-96.5c34.187 0 62-27.813 62-62 0-4.418-3.582-8-8-8s-8 3.582-8 8c0 25.364-20.636 46-46 46s-46-20.636-46-46c0-39.645 47.052-60.631 76.559-34.383 3.301 2.936 8.357 2.641 11.294-.661 2.937-3.301 2.641-8.358-.661-11.294-11.354-10.1-25.983-15.662-41.193-15.662-34.187 0-62 27.813-62 62s27.814 62 62.001 62zm-86.588-52.997c.682-1.688.588-3.297.588-3.003 0-4.089-.802-4.025-18.174-22.483-3.028-3.218-8.092-3.37-11.309-.343-3.217 3.028-3.371 8.091-.343 11.309l3.31 3.517h-64.969l3.31-3.517c3.028-3.217 2.875-8.28-.343-11.309-3.218-3.028-8.28-2.874-11.309.343-.406.432-15.772 16.748-16.164 17.192-2.05 2.324-2.634 5.693-1.268 8.64.765 1.658.297.927 17.432 19.133 3.028 3.217 8.091 3.371 11.309.343 3.217-3.028 3.371-8.091.343-11.309l-3.31-3.517h64.969l-3.31 3.517c-4.819 5.12-1.125 13.483 5.824 13.483 2.129 0 4.253-.845 5.827-2.517 17.404-18.489 16.817-17.581 17.587-19.479zm-110.412-111.003h4v32c0 4.418 3.582 8 8 8s8-3.582 8-8v-40c0-4.418-3.582-8-8-8h-12c-4.418 0-8 3.582-8 8s3.582 8 8 8zm52 40c4.418 0 8-3.582 8-8v-18.374l9.926 11.581c3.191 3.722 8.956 3.723 12.148 0l9.926-11.581v18.374c0 4.418 3.582 8 8 8s8-3.582 8-8v-40c0-7.399-9.246-10.839-14.074-5.207l-17.926 20.914-17.926-20.913c-4.815-5.617-14.074-2.211-14.074 5.207v40c0 4.418 3.582 7.999 8 7.999z"/></svg>